<svg width="631" height="179" viewBox="0 0 631 179" fill="none" xmlns="http://www.w3.org/2000/svg">
<path d="M620.5 2.65527C616.333 2.65527 613 5.98861 613 10.1553C613 14.3219 616.333 17.6553 620.5 17.6553C624.667 17.6553 628 14.3219 628 10.1553C628 5.98861 624.667 2.65527 620.5 2.65527Z" fill="white"/>
<path d="M620.5 17.6553V156.155C620.5 167.201 611.546 176.155 600.5 176.155H0M613 10.1553C613 5.98861 616.333 2.65527 620.5 2.65527C624.667 2.65527 628 5.98861 628 10.1553C628 14.3219 624.667 17.6553 620.5 17.6553C616.333 17.6553 613 14.3219 613 10.1553Z" stroke="#30324F" stroke-width="5"/>
</svg>
