<svg width="657" height="184" viewBox="0 0 657 184" fill="none" xmlns="http://www.w3.org/2000/svg">
<path d="M10 3.15527C5.83333 3.15527 2.5 6.48861 2.5 10.6553C2.5 14.8219 5.83333 18.1553 10 18.1553C14.1667 18.1553 17.5 14.8219 17.5 10.6553C17.5 6.48861 14.1667 3.15527 10 3.15527Z" fill="white"/>
<path d="M17.5 10.6553H634C645.046 10.6553 654 19.6096 654 30.6553V183.155M2.5 10.6553C2.5 6.48861 5.83333 3.15527 10 3.15527C14.1667 3.15527 17.5 6.48861 17.5 10.6553C17.5 14.8219 14.1667 18.1553 10 18.1553C5.83333 18.1553 2.5 14.8219 2.5 10.6553Z" stroke="#30324F" stroke-width="5"/>
</svg>
