<svg width="612" height="193" viewBox="0 0 612 193" fill="none" xmlns="http://www.w3.org/2000/svg">
<path d="M602 3.15527C597.833 3.15527 594.5 6.48861 594.5 10.6553C594.5 14.8219 597.833 18.1553 602 18.1553C606.167 18.1553 609.5 14.8219 609.5 10.6553C609.5 6.48861 606.167 3.15527 602 3.15527Z" fill="white"/>
<path d="M594.5 10.6553H23C11.9543 10.6553 3 19.6096 3 30.6553V192.155M594.5 10.6553C594.5 6.48861 597.833 3.15527 602 3.15527C606.167 3.15527 609.5 6.48861 609.5 10.6553C609.5 14.8219 606.167 18.1553 602 18.1553C597.833 18.1553 594.5 14.8219 594.5 10.6553Z" stroke="#30324F" stroke-width="5"/>
</svg>
