<svg width="60" height="60" viewBox="0 0 60 60" fill="none" xmlns="http://www.w3.org/2000/svg">
<rect x="2" y="2" width="56" height="56" rx="20" fill="#29A5DB"/>
<rect x="2" y="2" width="56" height="56" rx="20" stroke="#272E30" stroke-width="3"/>
<path d="M41.2241 19.0899L17.677 28.3185C17.663 28.324 17.6494 28.3305 17.6364 28.338C17.4454 28.4476 16.1129 29.2731 17.9919 30.0132L18.0112 30.0204L23.6181 31.855C23.6609 31.8691 23.7062 31.8735 23.7508 31.868C23.7955 31.8625 23.8384 31.8472 23.8766 31.8231L37.7835 23.0353C37.8176 23.0138 37.8556 22.9993 37.8952 22.9926C38.0887 22.9602 38.6458 22.8995 38.2934 23.3527C37.8947 23.867 28.3958 32.4882 27.3415 33.4443C27.2807 33.4996 27.2431 33.5763 27.2364 33.6588L26.7763 39.2135C26.7762 39.2701 26.7892 39.3259 26.8141 39.3765C26.8391 39.4271 26.8753 39.4712 26.92 39.5051C26.9834 39.5456 27.058 39.5643 27.1327 39.5586C27.2074 39.5528 27.2783 39.5229 27.3349 39.4733L30.6663 36.4577C30.7189 36.4101 30.786 36.3822 30.8565 36.3785C30.927 36.3749 30.9966 36.3958 31.0538 36.4377L36.8659 40.7118L36.8847 40.7246C37.0253 40.8126 38.5448 41.708 38.9835 39.7083L42.9954 20.3876C43.001 20.3263 43.0553 19.6536 42.5805 19.256C42.0818 18.8405 41.3759 19.0503 41.2698 19.0729C41.2541 19.0773 41.2388 19.083 41.2241 19.0899Z" fill="white"/>
<path d="M36 8C46.6667 8 52 13.9429 52 24" stroke="#53CBFF" stroke-width="3" stroke-linecap="round" stroke-linejoin="round"/>
</svg>
